<?xml version="1.0" encoding="UTF-8" standalone="no"?>
<svg
   class="svg-snoweb svg-theme-light"
   x="0"
   y="0"
   width="23.770718"
   height="64.935066"
   viewBox="0 0 23.770718 64.935066"
   preserveAspectRatio="xMidYMid slice"
   version="1.1"
   id="svg51"
   sodipodi:docname="test.svg"
   inkscape:version="1.1.2 (b8e25be8, 2022-02-05)"
   xmlns:inkscape="http://www.inkscape.org/namespaces/inkscape"
   xmlns:sodipodi="http://sodipodi.sourceforge.net/DTD/sodipodi-0.dtd"
   xmlns:xlink="http://www.w3.org/1999/xlink"
   xmlns="http://www.w3.org/2000/svg"
   xmlns:svg="http://www.w3.org/2000/svg">
  <sodipodi:namedview
     id="namedview53"
     pagecolor="#ffffff"
     bordercolor="#000000"
     borderopacity="0.25"
     inkscape:pageshadow="2"
     inkscape:pageopacity="0.0"
     inkscape:pagecheckerboard="0"
     showgrid="false"
     fit-margin-top="0"
     fit-margin-left="0"
     fit-margin-right="0"
     fit-margin-bottom="0"
     inkscape:zoom="7.6758302"
     inkscape:cx="7.4910464"
     inkscape:cy="34.328534"
     inkscape:window-width="1728"
     inkscape:window-height="1051"
     inkscape:window-x="0"
     inkscape:window-y="38"
     inkscape:window-maximized="0"
     inkscape:current-layer="svg51" />
  <defs
     id="defs42">
    <pattern
       inkscape:collect="always"
       xlink:href="#pattern3092"
       id="pattern3097"
       patternTransform="matrix(0.75,0,0,0.75,-2.001953e-7,2.8759765e-6)" />
    <pattern
       inkscape:collect="always"
       xlink:href="#pattern3085"
       id="pattern3090"
       patternTransform="matrix(0.79999998,0,0,0.79999998,-1.0200195e-5,-7.1240234e-6)" />
    <pattern
       inkscape:collect="always"
       xlink:href="#pattern3078"
       id="pattern3083"
       patternTransform="matrix(0.7692308,0,0,0.7692308,-3.0200195e-5,7.2875977e-5)" />
    <pattern
       inkscape:collect="always"
       xlink:href="#pattern135"
       id="pattern3076"
       patternTransform="matrix(0.05345393,0,0,0.05345393,-2.001953e-7,-7.1240234e-6)" />
    <pattern
       inkscape:collect="always"
       xlink:href="#unit-202207-2417-1442-415acac5-5d7f-4efe-820c-cee3085eddc5"
       id="pattern138" />
    <style
       id="style40">
        
            
            
            
        

        .svg-fill-primary {
            fill: #090D49;
        }

        .svg-fill-secondary {
            fill: #65CDAE;
        }

        .svg-fill-tertiary {
            fill: #E5E7EB;
        }

        .svg-stroke-primary {
            stroke: #090D49;
        }

        .svg-stroke-secondary {
            stroke: #65CDAE;
        }

        .svg-stroke-tertiary {
            stroke: #E5E7EB;
        }
    </style>
    <pattern
       patternUnits="userSpaceOnUse"
       width="1216"
       height="1216"
       id="pattern135">
      <rect
         width="1216"
         height="1216"
         fill="url(#unit-202207-2417-1442-415acac5-5d7f-4efe-820c-cee3085eddc5)"
         id="rect49"
         style="fill:url(#pattern138)"
         x="0"
         y="0" />
    </pattern>
    <pattern
       patternUnits="userSpaceOnUse"
       width="65"
       height="65"
       patternTransform="translate(230.07283,205.84093)"
       id="pattern3078">
      <rect
         style="fill:url(#pattern3076);stroke:none;stroke-width:0.0534542"
         width="65"
         height="65"
         x="0"
         y="0"
         id="rect140" />
    </pattern>
    <pattern
       patternUnits="userSpaceOnUse"
       width="50"
       height="50"
       patternTransform="translate(230.07283,205.84093)"
       id="pattern3085">
      <rect
         style="fill:url(#pattern3083);stroke:none;stroke-width:0.769231"
         width="50"
         height="50"
         x="0"
         y="0"
         id="rect3081" />
    </pattern>
    <pattern
       patternUnits="userSpaceOnUse"
       width="40"
       height="40"
       patternTransform="translate(230.07283,205.84093)"
       id="pattern3092">
      <rect
         style="fill:url(#pattern3090);stroke:none;stroke-width:0.8"
         width="40"
         height="40"
         x="0"
         y="0"
         id="rect3088" />
    </pattern>
    <pattern
       patternUnits="userSpaceOnUse"
       width="30"
       height="30"
       patternTransform="translate(230.07283,205.84093)"
       id="pattern3099">
      <rect
         style="fill:url(#pattern3097);stroke:none;stroke-width:0.75"
         width="30"
         height="30"
         x="0"
         y="0"
         id="rect3095" />
    </pattern>
  </defs>
  <defs
     id="defs47">
    <pattern
       id="unit-202207-2417-1442-415acac5-5d7f-4efe-820c-cee3085eddc5"
       x="0"
       y="0"
       width="304"
       height="304"
       patternUnits="userSpaceOnUse">
      <path
         class="svg-fill-primary"
         fill-rule="evenodd"
         d="M44.1 224a5 5 0 1 1 0 2H0v-2h44.1zm160 48a5 5 0 1 1 0 2H82v-2h122.1zm57.8-46a5 5 0 1 1 0-2H304v2h-42.1zm0 16a5 5 0 1 1 0-2H304v2h-42.1zm6.2-114a5 5 0 1 1 0 2h-86.2a5 5 0 1 1 0-2h86.2zm-256-48a5 5 0 1 1 0 2H0v-2h12.1zm185.8 34a5 5 0 1 1 0-2h86.2a5 5 0 1 1 0 2h-86.2zM258 12.1a5 5 0 1 1-2 0V0h2v12.1zm-64 208a5 5 0 1 1-2 0v-54.2a5 5 0 1 1 2 0v54.2zm48-198.2V80h62v2h-64V21.9a5 5 0 1 1 2 0zm16 16V64h46v2h-48V37.9a5 5 0 1 1 2 0zm-128 96V208h16v12.1a5 5 0 1 1-2 0V210h-16v-76.1a5 5 0 1 1 2 0zm-5.9-21.9a5 5 0 1 1 0 2H114v48H85.9a5 5 0 1 1 0-2H112v-48h12.1zm-6.2 130a5 5 0 1 1 0-2H176v-74.1a5 5 0 1 1 2 0V242h-60.1zm-16-64a5 5 0 1 1 0-2H114v48h10.1a5 5 0 1 1 0 2H112v-48h-10.1zM66 284.1a5 5 0 1 1-2 0V274H50v30h-2v-32h18v12.1zM236.1 176a5 5 0 1 1 0 2H226v94h48v32h-2v-30h-48v-98h12.1zm25.8-30a5 5 0 1 1 0-2H274v44.1a5 5 0 1 1-2 0V146h-10.1zm-64 96a5 5 0 1 1 0-2H208v-80h16v-14h-42.1a5 5 0 1 1 0-2H226v18h-16v80h-12.1zm86.2-210a5 5 0 1 1 0 2H272V0h2v32h10.1zM98 101.9V146H53.9a5 5 0 1 1 0-2H96v-42.1a5 5 0 1 1 2 0zM53.9 34a5 5 0 1 1 0-2H80V0h2v34H53.9zm60.1 3.9V66H82v64H69.9a5 5 0 1 1 0-2H80V64h32V37.9a5 5 0 1 1 2 0zM101.9 82a5 5 0 1 1 0-2H128V37.9a5 5 0 1 1 2 0V82h-28.1zm16-64a5 5 0 1 1 0-2H146v44.1a5 5 0 1 1-2 0V18h-26.1zm102.2 270a5 5 0 1 1 0 2H98v14h-2v-16h124.1zM242 149.9V160h16v34h-16v62h48v48h-2v-46h-48v-66h16v-30h-16v-12.1a5 5 0 1 1 2 0zM53.9 18a5 5 0 1 1 0-2H64V2H48V0h18v18H53.9zm112 32a5 5 0 1 1 0-2H192V0h50v2h-48v48h-28.1zm-48-48a5 5 0 0 1-9.8-2h2.07a3 3 0 1 0 5.66 0H178v34h-18V21.9a5 5 0 1 1 2 0V32h14V2h-58.1zm0 96a5 5 0 1 1 0-2H137l32-32h39V21.9a5 5 0 1 1 2 0V66h-40.17l-32 32H117.9zm28.1 90.1a5 5 0 1 1-2 0v-76.51L175.59 80H224V21.9a5 5 0 1 1 2 0V82h-49.59L146 112.41v75.69zm16 32a5 5 0 1 1-2 0v-99.51L184.59 96H300.1a5 5 0 0 1 3.9-3.9v2.07a3 3 0 0 0 0 5.66v2.07a5 5 0 0 1-3.9-3.9H185.41L162 121.41v98.69zm-144-64a5 5 0 1 1-2 0v-3.51l48-48V48h32V0h2v50H66v55.41l-48 48v2.69zM50 53.9v43.51l-48 48V208h26.1a5 5 0 1 1 0 2H0v-65.41l48-48V53.9a5 5 0 1 1 2 0zm-16 16V89.41l-34 34v-2.82l32-32V69.9a5 5 0 1 1 2 0zM12.1 32a5 5 0 1 1 0 2H9.41L0 43.41V40.6L8.59 32h3.51zm265.8 18a5 5 0 1 1 0-2h18.69l7.41-7.41v2.82L297.41 50H277.9zm-16 160a5 5 0 1 1 0-2H288v-71.41l16-16v2.82l-14 14V210h-28.1zm-208 32a5 5 0 1 1 0-2H64v-22.59L40.59 194H21.9a5 5 0 1 1 0-2H41.41L66 216.59V242H53.9zm150.2 14a5 5 0 1 1 0 2H96v-56.6L56.6 162H37.9a5 5 0 1 1 0-2h19.5L98 200.6V256h106.1zm-150.2 2a5 5 0 1 1 0-2H80v-46.59L48.59 178H21.9a5 5 0 1 1 0-2H49.41L82 208.59V258H53.9zM34 39.8v1.61L9.41 66H0v-2h8.59L32 40.59V0h2v39.8zM2 300.1a5 5 0 0 1 3.9 3.9H3.83A3 3 0 0 0 0 302.17V256h18v48h-2v-46H2v42.1zM34 241v63h-2v-62H0v-2h34v1zM17 18H0v-2h16V0h2v18h-1zm273-2h14v2h-16V0h2v16zm-32 273v15h-2v-14h-14v14h-2v-16h18v1zM0 92.1A5.02 5.02 0 0 1 6 97a5 5 0 0 1-6 4.9v-2.07a3 3 0 1 0 0-5.66V92.1zM80 272h2v32h-2v-32zm37.9 32h-2.07a3 3 0 0 0-5.66 0h-2.07a5 5 0 0 1 9.8 0zM5.9 0A5.02 5.02 0 0 1 0 5.9V3.83A3 3 0 0 0 3.83 0H5.9zm294.2 0h2.07A3 3 0 0 0 304 3.83V5.9a5 5 0 0 1-3.9-5.9zm3.9 300.1v2.07a3 3 0 0 0-1.83 1.83h-2.07a5 5 0 0 1 3.9-3.9zM97 100a3 3 0 1 0 0-6 3 3 0 0 0 0 6zm0-16a3 3 0 1 0 0-6 3 3 0 0 0 0 6zm16 16a3 3 0 1 0 0-6 3 3 0 0 0 0 6zm16 16a3 3 0 1 0 0-6 3 3 0 0 0 0 6zm0 16a3 3 0 1 0 0-6 3 3 0 0 0 0 6zm-48 32a3 3 0 1 0 0-6 3 3 0 0 0 0 6zm16 16a3 3 0 1 0 0-6 3 3 0 0 0 0 6zm32 48a3 3 0 1 0 0-6 3 3 0 0 0 0 6zm-16 16a3 3 0 1 0 0-6 3 3 0 0 0 0 6zm32-16a3 3 0 1 0 0-6 3 3 0 0 0 0 6zm0-32a3 3 0 1 0 0-6 3 3 0 0 0 0 6zm16 32a3 3 0 1 0 0-6 3 3 0 0 0 0 6zm32 16a3 3 0 1 0 0-6 3 3 0 0 0 0 6zm0-16a3 3 0 1 0 0-6 3 3 0 0 0 0 6zm-16-64a3 3 0 1 0 0-6 3 3 0 0 0 0 6zm16 0a3 3 0 1 0 0-6 3 3 0 0 0 0 6zm16 96a3 3 0 1 0 0-6 3 3 0 0 0 0 6zm0 16a3 3 0 1 0 0-6 3 3 0 0 0 0 6zm16 16a3 3 0 1 0 0-6 3 3 0 0 0 0 6zm16-144a3 3 0 1 0 0-6 3 3 0 0 0 0 6zm0 32a3 3 0 1 0 0-6 3 3 0 0 0 0 6zm16-32a3 3 0 1 0 0-6 3 3 0 0 0 0 6zm16-16a3 3 0 1 0 0-6 3 3 0 0 0 0 6zm-96 0a3 3 0 1 0 0-6 3 3 0 0 0 0 6zm0 16a3 3 0 1 0 0-6 3 3 0 0 0 0 6zm16-32a3 3 0 1 0 0-6 3 3 0 0 0 0 6zm96 0a3 3 0 1 0 0-6 3 3 0 0 0 0 6zm-16-64a3 3 0 1 0 0-6 3 3 0 0 0 0 6zm16-16a3 3 0 1 0 0-6 3 3 0 0 0 0 6zm-32 0a3 3 0 1 0 0-6 3 3 0 0 0 0 6zm0-16a3 3 0 1 0 0-6 3 3 0 0 0 0 6zm-16 0a3 3 0 1 0 0-6 3 3 0 0 0 0 6zm-16 0a3 3 0 1 0 0-6 3 3 0 0 0 0 6zm-16 0a3 3 0 1 0 0-6 3 3 0 0 0 0 6zM49 36a3 3 0 1 0 0-6 3 3 0 0 0 0 6zm-32 0a3 3 0 1 0 0-6 3 3 0 0 0 0 6zm32 16a3 3 0 1 0 0-6 3 3 0 0 0 0 6zM33 68a3 3 0 1 0 0-6 3 3 0 0 0 0 6zm16-48a3 3 0 1 0 0-6 3 3 0 0 0 0 6zm0 240a3 3 0 1 0 0-6 3 3 0 0 0 0 6zm16 32a3 3 0 1 0 0-6 3 3 0 0 0 0 6zm-16-64a3 3 0 1 0 0-6 3 3 0 0 0 0 6zm0 16a3 3 0 1 0 0-6 3 3 0 0 0 0 6zm-16-32a3 3 0 1 0 0-6 3 3 0 0 0 0 6zm80-176a3 3 0 1 0 0-6 3 3 0 0 0 0 6zm16 0a3 3 0 1 0 0-6 3 3 0 0 0 0 6zm-16-16a3 3 0 1 0 0-6 3 3 0 0 0 0 6zm32 48a3 3 0 1 0 0-6 3 3 0 0 0 0 6zm16-16a3 3 0 1 0 0-6 3 3 0 0 0 0 6zm0-32a3 3 0 1 0 0-6 3 3 0 0 0 0 6zm112 176a3 3 0 1 0 0-6 3 3 0 0 0 0 6zm-16 16a3 3 0 1 0 0-6 3 3 0 0 0 0 6zm0 16a3 3 0 1 0 0-6 3 3 0 0 0 0 6zm0 16a3 3 0 1 0 0-6 3 3 0 0 0 0 6zM17 180a3 3 0 1 0 0-6 3 3 0 0 0 0 6zm0 16a3 3 0 1 0 0-6 3 3 0 0 0 0 6zm0-32a3 3 0 1 0 0-6 3 3 0 0 0 0 6zm16 0a3 3 0 1 0 0-6 3 3 0 0 0 0 6zM17 84a3 3 0 1 0 0-6 3 3 0 0 0 0 6zm32 64a3 3 0 1 0 0-6 3 3 0 0 0 0 6zm16-16a3 3 0 1 0 0-6 3 3 0 0 0 0 6z"
         id="path44" />
    </pattern>
  </defs>
  <g
     id="g1876"
     transform="matrix(1.010278,0,0,1.010278,-34.552805,-6.0493035)"
     style="fill:#191d2b;fill-opacity:1;stroke:none;stroke-opacity:1">
    <path
       fill="#191d2b;"
       sodipodi:nodetypes="cssssssssscsssssssssc"
       id="path1947"
       d="m 39.708934,63.678683 c -0.39184,2.091967 1.790672,6.436378 6.18165,6.578301 5.308336,0.171574 8.699737,-3.889078 7.119749,-10.516109 L 45.086538,23.171517 c -0.943257,-4.353257 -0.235257,-6.71442 0.268403,-8.121572 1.343735,-3.754196 4.700881,-5.3026408 5.518193,-4.100737 0.466629,0.686205 1.594908,3.894798 -1.616859,9.641613 -2.504897,4.482014 -14.15929,10.359317 -15.014575,20.87719 -0.740418,9.146238 8.833989,15.90129 17.097566,13.245729 5.48642,-1.763101 8.314699,-10.08972 4.918791,-14.384753 C 47.29624,28.994371 32.923702,46.341263 46.846564,51.0935 45.332604,49.90238 44.300646,48.980054 44.1085,47.852721 42.237755,36.876941 58.741182,39.774741 54.294493,50.18735 52.466001,54.469045 45.080341,55.297323 40.874269,51.477433 37.350853,48.277521 35.787387,42.113231 39.708327,37.687888 45.018831,31.694223 51.288782,26.31366 52.954064,18.108736 54.923313,8.4061491 48.493821,0.84188926 44.429027,10.385835 c -1.363934,3.202453 -1.872011,6.417239 -0.566021,12.577699 l 7.917543,37.347681 c 0.566837,2.673813 0.187362,6.353204 -2.308175,8.044259 -1.236187,0.83768 -5.61059,1.414194 -6.680799,-0.585382"
       style="fill:#191d2b;fill-opacity:1;fill-rule:nonzero;stroke-width:0.1;stroke-linecap:butt;stroke-linejoin:miter;stroke-miterlimit:4;stroke-dasharray:none;stroke-opacity:1;stroke:none" />
    <ellipse
       transform="matrix(-1.08512,-0.02036848,0.02036848,-1.08512,90.68868,135.0572)"
       id="path4608"
       style="fill:#191d2b;fill-opacity:1;stroke-width:0.0921395;stroke-miterlimit:4;stroke-dasharray:none;stroke-opacity:1;stroke:none"
       cx="44.809425"
       cy="64.584198"
       rx="3.439605"
       ry="3.4987047" />
  </g>
</svg>
